<svg width="25" height="16" viewBox="0 0 25 16" fill="none" xmlns="http://www.w3.org/2000/svg">
<path d="M24.9117 3.17221C24.8323 3.07131 24.711 3.01239 24.5827 3.01259H5.37855L4.73305 0.320603C4.68794 0.132598 4.51976 0 4.32631 0H0.898843C0.667869 0 0.480835 0.187228 0.480835 0.418202C0.480835 0.648981 0.667869 0.83621 0.898843 0.83621H3.99657L4.64302 3.5282L7.51388 15.2949C7.55938 15.4821 7.72717 15.6139 7.91984 15.6141H21.7112C21.9422 15.6141 22.1295 15.4269 22.1295 15.1959C22.1295 14.9651 21.9422 14.7779 21.7112 14.7779H8.24883L7.78708 12.886H22.3808C22.5892 12.8858 22.7654 12.7316 22.7932 12.5249L24.9884 3.52807C25.0183 3.40383 24.99 3.2726 24.9112 3.17189L24.9117 3.17221ZM22.0502 12.0501H7.58433L5.58179 3.84911H24.0503L22.0502 12.0501Z" fill="black"/>
</svg>
